<?xml version="1.0" standalone="no"?>
<!DOCTYPE svg PUBLIC "-//W3C//DTD SVG 20010904//EN"
 "http://www.w3.org/TR/2001/REC-SVG-20010904/DTD/svg10.dtd">
<svg version="1.0" xmlns="http://www.w3.org/2000/svg"
 width="900.000000pt" height="900.000000pt" viewBox="0 0 900.000000 900.000000"
 preserveAspectRatio="xMidYMid meet">
<metadata>
Created by potrace 1.14, written by Peter Selinger 2001-2017
</metadata>
<g transform="translate(0.000000,900.000000) scale(0.100000,-0.100000)"
fill="#000000" stroke="none">
<path d="M4197 8986 c-22 -8 -50 -24 -63 -37 l-24 -22 0 -2978 c0 -1638 -3
-2980 -7 -2982 -5 -3 -51 -8 -103 -11 -52 -4 -114 -9 -137 -11 -171 -19 -222
-25 -303 -36 -41 -6 -84 -13 -95 -15 -10 -2 -37 -6 -60 -10 -36 -5 -349 -67
-400 -79 -11 -2 -63 -15 -115 -29 -52 -13 -98 -21 -101 -17 -3 3 -50 92 -104
196 -84 165 -286 525 -337 604 -10 14 -25 40 -34 56 -34 61 -227 345 -283 417
-23 28 -29 50 -9 30 25 -25 28 -11 5 20 -38 51 -44 66 -21 47 39 -33 294 -158
294 -145 0 2 -24 27 -53 55 l-52 51 50 -21 c28 -12 91 -44 141 -70 50 -27 94
-46 97 -43 15 15 -60 123 -137 197 -43 40 -41 45 4 22 40 -21 38 -9 -10 46
-45 53 -125 109 -184 130 l-39 14 34 5 34 6 -43 22 c-44 23 -119 41 -184 44
l-38 1 36 22 36 21 -54 12 c-29 7 -80 21 -113 32 l-60 20 80 -5 c249 -16 285
-17 285 -10 0 21 -102 80 -170 100 -55 15 -55 15 85 10 77 -2 149 -7 161 -9
48 -10 99 -10 95 -1 -17 43 -82 94 -156 123 -100 39 243 -30 368 -74 22 -8 42
-13 44 -10 7 6 -18 61 -43 93 -28 37 -94 85 -139 101 -29 10 -28 10 20 11 54
1 204 -28 274 -53 67 -24 76 -22 54 15 -39 68 -167 153 -249 166 -19 3 -34 9
-34 13 0 4 20 20 45 36 40 25 43 29 28 39 -23 13 -206 17 -258 5 -45 -10 -46
-11 44 54 23 17 41 33 41 37 0 7 -78 -6 -130 -22 -56 -19 -150 -68 -218 -115
-63 -44 -66 -43 -30 8 10 14 18 31 18 38 0 17 -85 -33 -163 -96 l-68 -55 4 30
c3 17 2 31 -1 31 -4 0 -34 -21 -67 -47 -33 -25 -52 -37 -42 -26 10 12 59 50
109 84 73 51 86 64 71 70 -29 12 -85 9 -128 -6 l-40 -14 34 29 c19 16 88 56
154 89 l121 61 -40 16 c-28 12 -57 15 -108 11 l-68 -4 28 23 c16 13 72 46 124
73 l94 49 -44 12 c-55 15 -137 7 -196 -19 -48 -22 -48 -21 -35 27 11 38 9 39
-38 10 -45 -28 -82 -64 -115 -113 -30 -44 -35 -27 -12 48 8 26 10 47 6 47 -12
0 -67 -82 -87 -128 -9 -20 -26 -73 -39 -117 l-23 -80 0 48 c-2 96 -32 35 -55
-108 -11 -71 -13 -76 -20 -47 -9 39 -21 41 -31 5 l-7 -28 -11 30 -10 30 -13
-35 c-7 -19 -13 -27 -13 -17 -1 20 -52 126 -77 160 l-16 22 6 -27 c8 -37 0
-35 -20 3 -19 38 -99 117 -143 142 l-32 19 21 -42 c12 -23 17 -41 11 -39 -5 2
-51 41 -100 87 -50 46 -91 81 -91 78 0 -7 53 -123 87 -189 26 -52 22 -54 -26
-9 -60 57 19 -127 82 -190 29 -28 30 -31 10 -26 -13 3 -23 2 -23 -2 0 -8 55
-57 120 -109 l25 -20 -30 -1 -30 0 25 -20 25 -20 -35 0 -35 0 25 -20 25 -20
-50 5 c-94 10 -140 12 -165 5 -23 -6 -23 -7 15 -19 63 -21 59 -26 -13 -23 -83
5 -206 -14 -252 -39 l-35 -18 55 -1 c30 0 62 -5 70 -10 13 -8 12 -10 -4 -10
-40 0 -167 -78 -189 -116 -6 -11 -1 -14 20 -13 54 3 55 0 19 -42 -41 -48 -66
-115 -66 -176 l0 -44 83 84 c45 47 92 90 105 96 l22 12 -21 -40 c-24 -47 -34
-108 -25 -147 l7 -26 37 43 c53 63 193 201 198 196 3 -2 -7 -24 -21 -48 -14
-26 -25 -60 -25 -83 l0 -38 57 48 c32 27 52 41 44 31 -12 -15 -11 -17 7 -17
40 0 31 -18 -36 -68 -84 -63 -137 -115 -123 -120 6 -2 33 3 59 12 l47 16 -30
-22 c-93 -69 -206 -198 -249 -287 -26 -55 -19 -55 49 -1 l64 51 -24 -55 c-33
-74 -57 -171 -53 -214 l3 -37 43 39 c23 21 42 37 43 35 0 -2 2 -31 3 -65 5
-82 14 -120 43 -179 23 -47 60 -95 72 -95 4 0 7 56 8 125 2 122 15 231 31 247
4 4 9 -9 10 -30 3 -50 55 -155 93 -186 17 -14 34 -26 37 -26 4 0 7 64 8 142 0
175 5 257 15 283 4 11 8 16 9 10 1 -5 3 -19 5 -30 2 -11 7 -36 10 -55 7 -37
51 -120 64 -120 4 0 15 44 25 98 27 145 59 282 66 282 3 0 4 -16 2 -36 -5 -43
14 -136 36 -179 l16 -30 8 30 c5 17 24 100 43 185 l34 155 -2 -118 c-1 -64 0
-117 2 -117 3 0 15 10 28 22 l23 22 -7 -50 c-11 -66 -10 -174 1 -199 7 -18 10
-16 21 15 l12 35 7 -60 c8 -71 41 -157 80 -208 35 -46 48 -47 35 -5 -5 18 -9
35 -9 38 0 3 20 -29 44 -70 52 -89 109 -157 130 -157 19 0 19 -3 0 77 -17 72
-44 223 -39 228 1 1 17 -27 34 -64 17 -37 33 -65 35 -63 3 4 -2 54 -19 170 -3
20 -14 67 -25 105 l-18 68 33 -39 c19 -22 34 -38 35 -35 0 3 -7 30 -15 60 -8
30 -13 55 -11 57 3 3 121 -184 194 -309 124 -212 289 -548 423 -861 61 -143
66 -157 49 -157 -19 0 -263 -91 -425 -157 -450 -186 -925 -449 -1308 -725
l-48 -35 57 -74 c186 -243 463 -511 757 -733 110 -83 316 -226 343 -237 5 -2
52 -29 104 -60 433 -256 963 -450 1450 -533 14 -2 52 -9 85 -14 33 -6 85 -14
115 -17 30 -3 62 -8 70 -10 19 -5 145 -15 290 -24 119 -8 554 -6 625 3 22 2
78 7 125 11 47 3 99 8 115 11 17 2 53 6 80 9 28 3 79 10 115 16 80 13 105 17
150 23 19 3 68 12 107 20 40 9 86 18 103 21 16 3 60 12 97 21 38 9 75 17 84
19 55 11 346 93 469 131 209 66 479 166 675 249 246 104 669 308 870 420 28
15 79 43 115 63 36 20 77 43 93 52 193 107 806 493 821 518 3 6 -473 329 -589
399 -475 287 -876 473 -1375 640 -124 41 -227 77 -229 79 -5 5 123 246 205
384 105 176 251 378 287 397 l29 15 -30 -39 c-17 -21 -47 -69 -68 -108 l-37
-70 43 40 42 40 -17 -35 c-10 -19 -35 -62 -57 -94 -21 -32 -35 -63 -31 -67 9
-9 86 33 143 78 19 16 29 20 21 10 -8 -9 -11 -20 -7 -24 10 -11 79 50 114 101
29 44 37 49 33 21 -1 -5 8 1 19 13 20 24 50 109 50 146 1 17 3 15 14 -9 l12
-29 24 67 c13 37 25 65 28 63 2 -2 -4 -52 -13 -111 -9 -58 -15 -109 -12 -111
9 -10 49 41 73 91 l23 50 -5 -40 c-9 -72 -14 -99 -26 -162 -6 -35 -9 -66 -5
-70 10 -9 65 45 88 87 11 19 18 26 15 15 -2 -11 -7 -34 -11 -52 -3 -17 -23
-77 -45 -132 -32 -85 -36 -101 -22 -101 29 0 80 37 112 81 27 37 30 39 30 18
0 -13 -16 -69 -35 -124 -19 -55 -35 -103 -35 -108 0 -14 54 20 87 55 17 18 43
57 57 87 l24 53 17 -33 c16 -29 19 -31 30 -16 14 19 25 94 21 145 -3 43 7 40
39 -10 l26 -43 -6 54 c-7 63 -46 171 -81 224 l-25 39 30 -23 c17 -12 34 -20
37 -16 4 3 -13 39 -37 79 -56 93 -55 89 -28 85 13 -2 29 -18 40 -38 l17 -34
10 26 c6 15 8 41 6 58 -3 17 -3 31 1 31 7 0 58 -111 75 -162 6 -21 16 -38 20
-38 10 0 28 58 33 105 3 28 5 25 34 -35 16 -36 35 -76 40 -90 10 -24 11 -23
23 20 11 42 9 105 -6 143 -6 15 -2 17 21 11 l27 -7 -21 40 c-11 22 -36 54 -56
72 -36 32 -36 32 -8 25 15 -4 36 -11 46 -16 10 -5 17 -5 17 1 0 17 -66 61
-137 91 -55 24 -63 30 -38 30 17 0 25 4 20 9 -14 12 -104 41 -134 42 -24 2
-24 2 -3 6 23 5 31 23 10 23 -8 0 -5 7 6 15 17 13 17 15 4 15 -26 0 -29 16 -4
18 29 2 93 29 101 42 3 6 -1 8 -12 4 -10 -3 -2 4 18 15 36 20 109 89 109 103
0 11 -7 10 -33 -3 -12 -5 9 19 46 55 38 36 65 66 60 66 -5 0 -44 -14 -86 -30
-92 -35 -97 -36 -66 -10 l24 19 -25 0 c-14 1 -45 -9 -70 -21 -44 -21 -53 -24
-76 -27 -7 0 -30 -20 -53 -43 -31 -33 -41 -38 -41 -24 0 15 -3 16 -15 6 -13
-10 -15 -9 -15 11 0 19 -2 21 -10 9 -15 -24 -20 -6 -10 31 6 18 10 52 10 74
-1 39 -1 39 -14 15 -13 -22 -14 -15 -14 65 1 55 -5 102 -13 120 l-13 30 -4
-43 c-3 -40 -22 -51 -22 -13 0 9 -16 41 -35 71 l-34 55 -7 -34 c-5 -26 -9 -30
-16 -17 -13 23 -87 64 -133 72 l-40 7 20 -24 c11 -13 23 -26 27 -29 13 -10 78
-95 78 -102 0 -4 -15 2 -34 13 -22 13 -48 19 -71 17 l-36 -3 60 -64 c32 -36
67 -79 77 -95 l17 -31 -24 22 c-25 23 -89 42 -89 28 0 -5 12 -24 27 -43 15
-20 21 -32 15 -28 -7 4 -12 1 -12 -8 0 -29 -15 -16 -55 50 -22 36 -48 70 -57
75 -21 11 -21 13 -8 -30 11 -39 8 -37 -44 36 -36 51 -110 119 -153 142 -29 15
-29 10 3 -40 14 -23 22 -39 17 -37 -92 45 -176 72 -187 60 -3 -2 3 -17 14 -32
11 -16 20 -30 20 -32 0 -1 -22 -1 -49 0 -27 2 -74 -3 -103 -12 -56 -17 -115
-55 -88 -57 96 -8 180 -20 222 -33 33 -11 37 -14 18 -15 -46 -2 -99 -21 -130
-47 -40 -35 -38 -44 13 -44 79 -1 306 -38 246 -41 -58 -2 -139 -28 -139 -44 0
-2 19 -9 43 -15 23 -6 80 -23 127 -38 l85 -26 -74 -7 c-91 -9 -110 -23 -50
-39 24 -6 53 -15 64 -20 11 -5 46 -16 78 -25 31 -9 57 -18 57 -20 0 -4 -60 2
-113 10 -38 7 -39 7 -27 -15 11 -21 10 -22 -6 -15 -11 4 -53 9 -94 12 -69 4
-73 3 -56 -11 19 -15 18 -16 -15 -16 -46 0 -107 -18 -149 -43 -34 -21 -34 -21
-10 -28 21 -6 22 -7 5 -9 -29 -2 -139 -73 -143 -91 -2 -14 4 -15 45 -9 26 4
77 10 113 13 l65 6 -40 -15 c-73 -27 -66 -36 20 -30 44 4 96 9 115 12 l35 5
-25 -20 c-14 -11 -20 -21 -15 -21 10 0 108 24 150 37 17 5 18 4 6 -11 -7 -9
-10 -16 -6 -16 4 0 -30 -39 -76 -87 -46 -49 -102 -110 -124 -138 -22 -27 -42
-52 -45 -55 -10 -10 -55 -66 -75 -94 -11 -16 -30 -40 -41 -55 -27 -32 -244
-358 -244 -365 0 -3 -18 -34 -41 -70 -34 -54 -45 -65 -63 -61 -11 3 -70 17
-131 31 -104 24 -328 68 -405 80 -19 3 -46 7 -59 9 -13 2 -45 7 -70 11 -25 4
-53 8 -61 9 -9 2 -43 6 -75 10 -33 4 -69 8 -80 10 -11 2 -56 6 -100 10 -44 3
-100 8 -123 11 -80 7 -276 16 -422 18 l-145 2 -3 2012 -2 2012 27 11 c55 22
208 15 372 -16 110 -22 107 -21 221 -50 116 -30 130 -33 180 -41 19 -3 37 -7
40 -9 3 -2 48 -7 100 -11 98 -9 213 -9 550 0 138 4 220 1 281 -8 48 -8 108
-17 135 -20 27 -4 63 -9 79 -12 l30 -6 -33 31 c-32 30 -33 33 -19 54 32 48
200 28 289 -35 23 -17 48 -36 53 -42 34 -40 147 -90 227 -101 102 -14 283 -2
295 19 3 6 3 8 -2 4 -12 -11 -62 19 -89 55 -15 19 -26 36 -26 39 0 3 26 -5 59
-18 150 -61 309 -48 471 38 93 50 91 53 -25 50 -165 -6 -254 29 -275 108 -15
54 -1 100 36 122 16 9 61 23 99 31 l70 14 -75 12 c-108 17 -208 49 -219 68
-11 20 8 63 45 100 13 13 24 26 24 28 0 2 -21 -6 -47 -19 -70 -35 -171 -75
-207 -81 -62 -12 -71 -12 -88 -3 -36 18 -16 89 39 139 37 35 66 50 136 69 l58
16 -80 32 c-53 22 -90 45 -110 68 -36 40 -34 51 30 144 23 33 39 63 37 66 -3
2 -29 -7 -59 -20 -150 -69 -308 -74 -317 -10 -6 40 104 91 328 154 63 18 116
34 118 35 1 1 -11 17 -28 35 -24 26 -28 35 -20 51 6 10 21 20 33 21 12 0 28 2
34 2 14 1 15 10 1 46 -14 37 -4 57 71 153 39 48 80 101 92 119 l22 31 -54 -30
c-96 -53 -170 -61 -204 -23 -39 43 6 90 102 105 l41 7 -15 36 c-21 52 -12 109
29 173 53 84 53 83 37 74 -8 -5 -28 -19 -45 -32 -69 -52 -264 -125 -474 -178
-183 -46 -216 -51 -223 -32 -3 9 1 21 9 27 27 24 14 30 -23 11 -32 -15 -55
-23 -113 -36 -3 -1 -18 -4 -35 -8 -62 -14 -119 -22 -215 -32 -35 -4 -71 -8
-80 -10 -9 -2 -50 -6 -91 -9 -41 -4 -92 -9 -114 -11 -68 -7 -295 -21 -500 -31
-229 -11 -246 -10 -272 21 -27 31 -28 39 -8 95 8 23 15 44 15 46 0 2 -12 -1
-27 -7 -16 -6 -28 -10 -28 -8 0 1 -22 -1 -50 -5 -27 -3 -72 -8 -100 -11 -47
-4 -304 -8 -457 -6 l-68 1 0 168 c0 162 -1 169 -22 189 -13 11 -33 26 -45 32
-37 19 -124 22 -166 7z m336 -636 c59 -121 48 -296 -26 -391 -17 -23 -42 -49
-54 -57 l-23 -14 0 303 1 304 35 -40 c20 -22 50 -69 67 -105z m-44 -725 c52
-105 67 -218 41 -327 -12 -49 -84 -208 -95 -208 -3 0 -5 140 -5 312 0 346 -1
341 59 223z m-3449 -3149 c0 -2 -8 -10 -17 -17 -16 -13 -17 -12 -4 4 13 16 21
21 21 13z m-40 -30 c0 -3 -15 -14 -32 -26 l-33 -22 30 26 c31 27 35 29 35 22z"/>
</g>
</svg>
